<svg width="18" height="26" viewBox="0 0 18 26" fill="none" xmlns="http://www.w3.org/2000/svg">
<path fill-rule="evenodd" clip-rule="evenodd" d="M0.588257 7.04229V1.23994C0.588257 0.55514 1.1747 0 1.89812 0H16.1019C16.8253 0 17.4118 0.55514 17.4118 1.23994V7.04229C17.4118 7.37114 17.2738 7.68652 17.0281 7.91906L11.3794 13.2663C10.8678 13.7505 10.8678 14.5356 11.3794 15.0198L17.0281 20.3671C17.2738 20.5996 17.4118 20.915 17.4118 21.2439V24.7601C17.4118 25.4449 16.8253 26 16.1019 26H1.89812C1.1747 26 0.588257 25.4449 0.588257 24.7601V21.2439C0.588257 20.915 0.726259 20.5996 0.971906 20.3671L6.62068 15.0198C7.13222 14.5356 7.13222 13.7505 6.62068 13.2663L0.971906 7.91906C0.72626 7.68652 0.588257 7.37114 0.588257 7.04229ZM13.7926 7.36215H4.33019C4.03786 7.36215 3.89202 7.69719 4.0995 7.89214L8.04176 11.5963C8.1966 11.7418 8.28369 11.9398 8.28369 12.1463V21.389C8.28369 21.5602 8.13708 21.699 7.95623 21.699H3.12611C2.94526 21.699 2.79865 21.8377 2.79865 22.0089V23.7139C2.79865 23.8851 2.94526 24.0238 3.12611 24.0238H15.1605C15.3413 24.0238 15.4879 23.8851 15.4879 23.7139V22.0089C15.4879 21.8377 15.3413 21.699 15.1605 21.699H10.2485C10.0676 21.699 9.92102 21.5602 9.92102 21.389V12.0694C9.92102 11.8629 10.0081 11.6649 10.163 11.5194L14.0233 7.89214C14.2308 7.69719 14.085 7.36215 13.7926 7.36215ZM5.17277 4.72727C5.85097 4.72727 6.40077 4.20683 6.40077 3.56483C6.40077 2.92283 5.85097 2.40238 5.17277 2.40238C4.49457 2.40238 3.94478 2.92283 3.94478 3.56483C3.94478 4.20683 4.49457 4.72727 5.17277 4.72727ZM10.3303 3.56483C10.3303 4.20683 9.78056 4.72727 9.10235 4.72727C8.42415 4.72727 7.87436 4.20683 7.87436 3.56483C7.87436 2.92283 8.42415 2.40238 9.10235 2.40238C9.78056 2.40238 10.3303 2.92283 10.3303 3.56483ZM13.0319 4.72727C13.7101 4.72727 14.2599 4.20683 14.2599 3.56483C14.2599 2.92283 13.7101 2.40238 13.0319 2.40238C12.3537 2.40238 11.8039 2.92283 11.8039 3.56483C11.8039 4.20683 12.3537 4.72727 13.0319 4.72727Z" fill="white"/>
</svg>
