<svg width="212" height="45" viewBox="0 0 212 45" fill="none" xmlns="http://www.w3.org/2000/svg">
<path fill-rule="evenodd" clip-rule="evenodd" d="M0 12.4177V2.59836C0 1.43947 0.990033 0.5 2.2113 0.5H26.1901C27.4114 0.5 28.4014 1.43947 28.4014 2.59836V12.4177C28.4014 12.9742 28.1684 13.508 27.7537 13.9015L18.2175 22.9507C17.3539 23.7701 17.3539 25.0987 18.2175 25.9182L27.7537 34.9674C28.1684 35.3609 28.4014 35.8946 28.4014 36.4511V42.4016C28.4014 43.5605 27.4114 44.5 26.1901 44.5H2.2113C0.990033 44.5 0 43.5605 0 42.4016V36.4511C0 35.8946 0.232975 35.3609 0.647675 34.9674L10.1839 25.9182C11.0475 25.0987 11.0475 23.7701 10.1839 22.9507L0.647675 13.9015C0.232976 13.508 0 12.9742 0 12.4177ZM22.2916 12.959H6.31711C5.8236 12.959 5.5774 13.526 5.92766 13.8559L12.583 20.1245C12.8444 20.3708 12.9914 20.7058 12.9914 21.0553V36.6967C12.9914 36.9864 12.7439 37.2213 12.4386 37.2213H4.2844C3.97908 37.2213 3.73157 37.4562 3.73157 37.7459V40.6311C3.73157 40.9209 3.97908 41.1557 4.28439 41.1557H24.6007C24.906 41.1557 25.1535 40.9209 25.1535 40.6311V37.7459C25.1535 37.4562 24.906 37.2213 24.6007 37.2213H16.3083C16.003 37.2213 15.7555 36.9864 15.7555 36.6967V20.9251C15.7555 20.5756 15.9025 20.2406 16.164 19.9943L22.681 13.8559C23.0313 13.526 22.7851 12.959 22.2916 12.959ZM7.73955 8.5C8.88449 8.5 9.81265 7.61925 9.81265 6.53279C9.81265 5.44633 8.88449 4.56557 7.73955 4.56557C6.59461 4.56557 5.66646 5.44633 5.66646 6.53279C5.66646 7.61925 6.59461 8.5 7.73955 8.5ZM16.4465 6.53279C16.4465 7.61925 15.5184 8.5 14.3735 8.5C13.2285 8.5 12.3004 7.61925 12.3004 6.53279C12.3004 5.44633 13.2285 4.56557 14.3735 4.56557C15.5184 4.56557 16.4465 5.44633 16.4465 6.53279ZM21.0074 8.5C22.1523 8.5 23.0805 7.61925 23.0805 6.53279C23.0805 5.44633 22.1523 4.56557 21.0074 4.56557C19.8624 4.56557 18.9343 5.44633 18.9343 6.53279C18.9343 7.61925 19.8624 8.5 21.0074 8.5Z" fill="#4A64EC"/>
<path d="M43.7815 34.6V9.96H55.7907C57.4527 9.96 58.9158 10.2885 60.18 10.9456C61.4675 11.5792 62.4624 12.4709 63.1647 13.6208C63.8904 14.7707 64.2532 16.0965 64.2532 17.5984C64.2532 19.1707 63.8202 20.5552 62.954 21.752C62.0878 22.9488 60.9291 23.8405 59.4777 24.4272L64.9204 34.6H59.2319L54.4212 25.1664H48.8731V34.6H43.7815ZM48.8731 20.9776H55.3342C56.4812 20.9776 57.3942 20.6725 58.0731 20.0624C58.7754 19.4523 59.1265 18.6544 59.1265 17.6688C59.1265 16.6832 58.7754 15.8853 58.0731 15.2752C57.3942 14.6651 56.4812 14.36 55.3342 14.36H48.8731V20.9776Z" fill="#4A64EC"/>
<path d="M75.1892 34.952C73.3632 34.952 71.7012 34.5296 70.2029 33.6848C68.7281 32.84 67.5577 31.7019 66.6915 30.2704C65.8253 28.8389 65.3923 27.2315 65.3923 25.448C65.3923 23.6645 65.8019 22.0571 66.6213 20.6256C67.464 19.1941 68.5994 18.056 70.0274 17.2112C71.4554 16.3664 73.0472 15.944 74.8029 15.944C76.5587 15.944 78.1154 16.3781 79.4732 17.2464C80.8309 18.1147 81.8961 19.288 82.6686 20.7664C83.4645 22.2448 83.8625 23.9227 83.8625 25.8V27.0672H70.3083C70.519 27.7947 70.8584 28.4517 71.3266 29.0384C71.8182 29.6251 72.4152 30.0827 73.1174 30.4112C73.8431 30.7397 74.6157 30.904 75.435 30.904C76.2543 30.904 77.0034 30.7749 77.6823 30.5168C78.3846 30.2587 78.9816 29.8949 79.4732 29.4256L82.6335 32.312C81.5098 33.2272 80.351 33.896 79.1571 34.3184C77.9866 34.7408 76.664 34.952 75.1892 34.952ZM70.2381 23.6176H79.122C78.9581 22.8901 78.6538 22.2565 78.209 21.7168C77.7877 21.1536 77.2727 20.7195 76.664 20.4144C76.0788 20.0859 75.4233 19.9216 74.6976 19.9216C73.9485 19.9216 73.2696 20.0741 72.661 20.3792C72.0523 20.6843 71.5373 21.1184 71.1159 21.6816C70.718 22.2213 70.4253 22.8667 70.2381 23.6176Z" fill="#4A64EC"/>
<path d="M93.8287 34.952C92.1432 34.952 90.5864 34.7408 89.1584 34.3184C87.7304 33.8725 86.4897 33.2389 85.4363 32.4176L87.8241 29.2144C88.8775 29.9184 89.8841 30.4464 90.8439 30.7984C91.8271 31.1504 92.7986 31.3264 93.7584 31.3264C94.8353 31.3264 95.6897 31.1504 96.3218 30.7984C96.9772 30.4229 97.305 29.9419 97.305 29.3552C97.305 28.8859 97.1177 28.5104 96.7432 28.2288C96.392 27.9472 95.8185 27.7477 95.0225 27.6304L91.5111 27.1024C89.6852 26.8208 88.304 26.2341 87.3676 25.3424C86.4312 24.4272 85.963 23.2304 85.963 21.752C85.963 20.5552 86.2673 19.5344 86.876 18.6896C87.5081 17.8213 88.3859 17.1525 89.5096 16.6832C90.6566 16.1904 92.0144 15.944 93.5829 15.944C94.9172 15.944 96.2164 16.1317 97.4806 16.5072C98.7681 16.8827 99.9737 17.4576 101.097 18.232L98.7798 21.3648C97.7732 20.7312 96.8134 20.2736 95.9004 19.992C94.9874 19.7104 94.0628 19.5696 93.1264 19.5696C92.2602 19.5696 91.5579 19.7339 91.0195 20.0624C90.5045 20.3909 90.247 20.8251 90.247 21.3648C90.247 21.8576 90.4343 22.2448 90.8088 22.5264C91.1834 22.808 91.8271 23.0075 92.7401 23.1248L96.2164 23.6528C98.0424 23.9109 99.4353 24.4976 100.395 25.4128C101.355 26.3045 101.835 27.4661 101.835 28.8976C101.835 30.0709 101.484 31.1152 100.781 32.0304C100.079 32.9221 99.1309 33.6379 97.937 34.1776C96.7432 34.6939 95.3737 34.952 93.8287 34.952Z" fill="#4A64EC"/>
<path d="M113.356 34.952C111.53 34.952 109.868 34.5296 108.369 33.6848C106.895 32.84 105.724 31.7019 104.858 30.2704C103.992 28.8389 103.559 27.2315 103.559 25.448C103.559 23.6645 103.968 22.0571 104.788 20.6256C105.63 19.1941 106.766 18.056 108.194 17.2112C109.622 16.3664 111.214 15.944 112.969 15.944C114.725 15.944 116.282 16.3781 117.64 17.2464C118.997 18.1147 120.062 19.288 120.835 20.7664C121.631 22.2448 122.029 23.9227 122.029 25.8V27.0672H108.475C108.685 27.7947 109.025 28.4517 109.493 29.0384C109.985 29.6251 110.582 30.0827 111.284 30.4112C112.01 30.7397 112.782 30.904 113.601 30.904C114.421 30.904 115.17 30.7749 115.849 30.5168C116.551 30.2587 117.148 29.8949 117.64 29.4256L120.8 32.312C119.676 33.2272 118.517 33.896 117.324 34.3184C116.153 34.7408 114.83 34.952 113.356 34.952ZM108.404 23.6176H117.288C117.125 22.8901 116.82 22.2565 116.375 21.7168C115.954 21.1536 115.439 20.7195 114.83 20.4144C114.245 20.0859 113.59 19.9216 112.864 19.9216C112.115 19.9216 111.436 20.0741 110.827 20.3792C110.219 20.6843 109.704 21.1184 109.282 21.6816C108.884 22.2213 108.592 22.8667 108.404 23.6176Z" fill="#4A64EC"/>
<path d="M124.976 34.6V16.2608H129.787V18.3024C130.372 17.5045 131.074 16.8944 131.894 16.472C132.713 16.0496 133.638 15.8384 134.668 15.8384C135.557 15.8619 136.225 16.0027 136.669 16.2608V20.4848C136.318 20.3205 135.932 20.2032 135.511 20.1328C135.089 20.0389 134.656 19.992 134.211 19.992C133.275 19.992 132.421 20.2267 131.648 20.696C130.875 21.1653 130.255 21.8341 129.787 22.7024V34.6H124.976Z" fill="#4A64EC"/>
<path d="M145.759 34.6L137.928 16.2608H143.16L148.182 28.4752L153.168 16.2608H158.295L150.429 34.6H145.759Z" fill="#4A64EC"/>
<path d="M165.508 34.9168C164.197 34.9168 163.038 34.6821 162.032 34.2128C161.025 33.72 160.241 33.0512 159.679 32.2064C159.117 31.3616 158.836 30.3877 158.836 29.2848C158.836 27.5248 159.492 26.1637 160.803 25.2016C162.137 24.216 163.963 23.7232 166.281 23.7232C167.873 23.7232 169.371 23.9696 170.775 24.4624V23.1248C170.775 22.0688 170.448 21.2709 169.792 20.7312C169.137 20.1915 168.177 19.9216 166.913 19.9216C166.14 19.9216 165.309 20.0507 164.42 20.3088C163.53 20.5435 162.5 20.9189 161.33 21.4352L159.574 17.88C161.025 17.2229 162.406 16.7301 163.717 16.4016C165.052 16.0731 166.386 15.9088 167.72 15.9088C170.178 15.9088 172.086 16.5072 173.444 17.704C174.825 18.8773 175.516 20.5435 175.516 22.7024V34.6H170.775V33.2976C170.026 33.8608 169.219 34.2715 168.352 34.5296C167.486 34.7877 166.538 34.9168 165.508 34.9168ZM163.401 29.1792C163.401 29.8832 163.706 30.4464 164.314 30.8688C164.923 31.2677 165.731 31.4672 166.737 31.4672C167.533 31.4672 168.271 31.3733 168.949 31.1856C169.628 30.9744 170.237 30.6693 170.775 30.2704V27.5952C170.19 27.3605 169.581 27.1845 168.949 27.0672C168.317 26.9499 167.638 26.8912 166.913 26.8912C165.813 26.8912 164.946 27.1024 164.314 27.5248C163.706 27.9237 163.401 28.4752 163.401 29.1792Z" fill="#4A64EC"/>
<path d="M187.316 34.8816C185.279 34.8816 183.734 34.424 182.681 33.5088C181.651 32.5701 181.136 31.2091 181.136 29.4256V20.2736H177.378V16.2608H181.136V11.5792L185.946 10.488V16.2608H191.178V20.2736H185.946V28.44C185.946 29.2848 186.133 29.8949 186.508 30.2704C186.883 30.6224 187.538 30.7984 188.474 30.7984C188.943 30.7984 189.364 30.7749 189.739 30.728C190.137 30.6576 190.57 30.5403 191.038 30.376V34.3536C190.546 34.5179 189.926 34.6469 189.177 34.7408C188.451 34.8347 187.831 34.8816 187.316 34.8816Z" fill="#4A64EC"/>
<path d="M202.238 34.952C200.412 34.952 198.762 34.5296 197.287 33.6848C195.812 32.84 194.642 31.7019 193.776 30.2704C192.909 28.8389 192.476 27.2315 192.476 25.448C192.476 23.6645 192.898 22.0571 193.74 20.6256C194.607 19.1707 195.777 18.0208 197.252 17.176C198.75 16.3312 200.412 15.9088 202.238 15.9088C204.064 15.9088 205.715 16.3312 207.189 17.176C208.688 18.0208 209.858 19.1707 210.701 20.6256C211.567 22.0571 212 23.6645 212 25.448C212 27.2315 211.567 28.8389 210.701 30.2704C209.858 31.7019 208.699 32.84 207.224 33.6848C205.75 34.5296 204.088 34.952 202.238 34.952ZM202.238 30.7632C203.198 30.7632 204.052 30.5285 204.802 30.0592C205.574 29.5899 206.183 28.9563 206.628 28.1584C207.096 27.3371 207.33 26.4336 207.33 25.448C207.33 24.4389 207.096 23.5355 206.628 22.7376C206.183 21.9397 205.574 21.3061 204.802 20.8368C204.052 20.344 203.198 20.0976 202.238 20.0976C201.302 20.0976 200.447 20.344 199.675 20.8368C198.902 21.3061 198.294 21.9397 197.849 22.7376C197.404 23.5355 197.182 24.4389 197.182 25.448C197.182 26.4336 197.404 27.3371 197.849 28.1584C198.294 28.9563 198.902 29.5899 199.675 30.0592C200.447 30.5285 201.302 30.7632 202.238 30.7632Z" fill="#4A64EC"/>
</svg>
